{"asset":{"version":"2.0","generator":"THREE.GLTFExporter"},"scenes":[{"nodes":[0],"name":"AuxScene"}],"scene":0,"nodes":[{"mesh":0}],"bufferViews":[{"buffer":0,"byteOffset":0,"byteLength":2340,"target":34962,"byteStride":12},{"buffer":0,"byteOffset":2340,"byteLength":2340,"target":34962,"byteStride":12}],"buffers":[{"byteLength":4680,"uri":"data:application/octet-stream;base64,"}],"accessors":[{"bufferView":0,"componentType":5126,"count":195,"max":[13.80000114440918,4.199999809265137,6.900001049041748],"min":[-14.399999618530273,0.20000000298023224,-6.900000095367432],"type":"VEC3"},{"bufferView":1,"componentType":5126,"count":195,"max":[0.5986706614494324,1,0.18413428962230682],"min":[0,0.7982284426689148,-0.2248591035604477],"type":"VEC3"}],"materials":[{"pbrMetallicRoughness":{"baseColorFactor":[0.5019607843137255,0.5019607843137255,0.5019607843137255,1],"metallicFactor":0,"roughnessFactor":1}}],"meshes":[{"primitives":[{"mode":4,"attributes":{"POSITION":0,"NORMAL":1},"material":0}]}]}