{"asset":{"version":"2.0","generator":"THREE.GLTFExporter"},"scenes":[{"nodes":[0],"name":"AuxScene"}],"scene":0,"nodes":[{"mesh":0}],"bufferViews":[{"buffer":0,"byteOffset":0,"byteLength":8028,"target":34962,"byteStride":12},{"buffer":0,"byteOffset":8028,"byteLength":8028,"target":34962,"byteStride":12}],"buffers":[{"byteLength":16056,"uri":"data:application/octet-stream;base64,"}],"accessors":[{"bufferView":0,"componentType":5126,"count":669,"max":[14.300000190734863,4.099999904632568,7.300000190734863],"min":[-14.600000381469727,0.20000000298023224,-7.300000190734863],"type":"VEC3"},{"bufferView":1,"componentType":5126,"count":669,"max":[0.9132173657417297,1,0.6246950626373291],"min":[-0.6687337756156921,0.4045120179653168,-0.6744616031646729],"type":"VEC3"}],"materials":[{"pbrMetallicRoughness":{"baseColorFactor":[0.5019607843137255,0.5019607843137255,0.5019607843137255,1],"metallicFactor":0,"roughnessFactor":1}}],"meshes":[{"primitives":[{"mode":4,"attributes":{"POSITION":0,"NORMAL":1},"material":0}]}]}