{"asset":{"version":"2.0","generator":"THREE.GLTFExporter"},"scenes":[{"nodes":[0],"name":"AuxScene"}],"scene":0,"nodes":[{"mesh":0}],"bufferViews":[{"buffer":0,"byteOffset":0,"byteLength":7236,"target":34962,"byteStride":12},{"buffer":0,"byteOffset":7236,"byteLength":7236,"target":34962,"byteStride":12}],"buffers":[{"byteLength":14472,"uri":"data:application/octet-stream;base64,"}],"accessors":[{"bufferView":0,"componentType":5126,"count":603,"max":[14.199999809265137,4.199999809265137,7.199999809265137],"min":[-14.399999618530273,0.20000000298023224,-7.300000190734863],"type":"VEC3"},{"bufferView":1,"componentType":5126,"count":603,"max":[0.4444437623023987,1,0.6396030783653259],"min":[-0.46342718601226807,0.6396012902259827,-0.6396030783653259],"type":"VEC3"}],"materials":[{"pbrMetallicRoughness":{"baseColorFactor":[0.5019607843137255,0.5019607843137255,0.5019607843137255,1],"metallicFactor":0,"roughnessFactor":1}}],"meshes":[{"primitives":[{"mode":4,"attributes":{"POSITION":0,"NORMAL":1},"material":0}]}]}