{"asset":{"version":"2.0","generator":"THREE.GLTFExporter"},"scenes":[{"name":"AuxScene","nodes":[0]}],"scene":0,"nodes":[{"mesh":0}],"bufferViews":[{"buffer":0,"byteOffset":0,"byteLength":1800,"target":34962,"byteStride":12},{"buffer":0,"byteOffset":1800,"byteLength":1800,"target":34962,"byteStride":12}],"buffers":[{"byteLength":3600,"uri":"data:application/octet-stream;base64,"}],"accessors":[{"bufferView":0,"componentType":5126,"count":150,"max":[19.300003051757812,0.5,39.433895111083984],"min":[-19.399999618530273,0.30000001192092896,-39.46610641479492],"type":"VEC3"},{"bufferView":1,"componentType":5126,"count":150,"max":[0.01754116080701351,1,0.08304540812969208],"min":[-0.01754116266965866,0.9965457320213318,-0.08304548263549805],"type":"VEC3"}],"materials":[{"pbrMetallicRoughness":{"baseColorFactor":[0.5019607843137255,0.5019607843137255,0.5019607843137255,1],"metallicFactor":0,"roughnessFactor":1}}],"meshes":[{"primitives":[{"mode":4,"attributes":{"POSITION":0,"NORMAL":1},"material":0}]}]}